solid atmosphere
 facet normal  0.000000e+000  0.000000e+000  1.000000e+000
   outer loop
     vertex  0.000000e+000  3.000000e-001  2.000000e-001
     vertex  0.000000e+000  0.000000e+000  2.000000e-001
     vertex  1.000000e+000  0.000000e+000  2.000000e-001
   endloop
 endfacet
 facet normal  0.000000e+000 -0.000000e+000  1.000000e+000
   outer loop
     vertex  1.000000e+000  0.000000e+000  2.000000e-001
     vertex  1.000000e+000  3.000000e-001  2.000000e-001
     vertex  0.000000e+000  3.000000e-001  2.000000e-001
   endloop
 endfacet
endsolid atmosphere
